  0
SECTION
  2
BLOCKS
  0
ENDSEC
  0
SECTION
  2
ENTITIES
  0
LINE
  8
0
 10
46
 20
12
 11
16.5
 21
12
  0
LINE
  8
0
 10
16.5
 20
12
 11
16.5
 21
12.0009
  0
LINE
  8
0
 10
16.5
 20
12.0009
 11
16.4476
 21
12.0009
  0
LINE
  8
0
 10
16.4476
 20
12.0009
 11
16.3432
 21
12.0082
  0
LINE
  8
0
 10
16.3432
 20
12.0082
 11
16.2395
 21
12.0228
  0
LINE
  8
0
 10
16.2395
 20
12.0228
 11
16.1371
 21
12.0446
  0
LINE
  8
0
 10
16.1371
 20
12.0446
 11
16.0365
 21
12.0734
  0
LINE
  8
0
 10
16.0365
 20
12.0734
 11
15.9381
 21
12.1092
  0
LINE
  8
0
 10
15.9381
 20
12.1092
 11
15.8424
 21
12.1518
  0
LINE
  8
0
 10
15.8424
 20
12.1518
 11
15.75
 21
12.201
  0
LINE
  8
0
 10
15.75
 20
12.201
 11
15.6612
 21
12.2564
  0
LINE
  8
0
 10
15.6612
 20
12.2564
 11
15.5765
 21
12.318
  0
LINE
  8
0
 10
15.5765
 20
12.318
 11
15.4963
 21
12.3853
  0
LINE
  8
0
 10
15.4963
 20
12.3853
 11
15.421
 21
12.458
  0
LINE
  8
0
 10
15.421
 20
12.458
 11
15.3509
 21
12.5358
  0
LINE
  8
0
 10
15.3509
 20
12.5358
 11
15.2865
 21
12.6183
  0
LINE
  8
0
 10
15.2865
 20
12.6183
 11
15.2279
 21
12.7051
  0
LINE
  8
0
 10
15.2279
 20
12.7051
 11
15.1756
 21
12.7958
  0
LINE
  8
0
 10
15.1756
 20
12.7958
 11
15.1297
 21
12.8899
  0
LINE
  8
0
 10
15.1297
 20
12.8899
 11
15.0905
 21
12.987
  0
LINE
  8
0
 10
15.0905
 20
12.987
 11
15.0581
 21
13.0865
  0
LINE
  8
0
 10
15.0581
 20
13.0865
 11
15.0328
 21
13.1881
  0
LINE
  8
0
 10
15.0328
 20
13.1881
 11
15.0146
 21
13.2912
  0
LINE
  8
0
 10
15.0146
 20
13.2912
 11
15.0036
 21
13.3954
  0
LINE
  8
0
 10
15.0036
 20
13.3954
 11
15
 21
13.5
  0
LINE
  8
0
 10
15
 20
13.5
 11
15
 21
19.7601
  0
LINE
  8
0
 10
15
 20
19.7601
 11
0
 21
19.7601
  0
LINE
  8
0
 10
0
 20
19.7601
 11
0
 21
11
  0
LINE
  8
0
 10
0
 20
11
 11
3.5
 21
11
  0
LINE
  8
0
 10
3.5
 20
11
 11
3.5
 21
10.9991
  0
LINE
  8
0
 10
3.5
 20
10.9991
 11
3.55234
 21
10.9991
  0
LINE
  8
0
 10
3.55234
 20
10.9991
 11
3.65678
 21
10.9918
  0
LINE
  8
0
 10
3.65678
 20
10.9918
 11
3.76047
 21
10.9772
  0
LINE
  8
0
 10
3.76047
 20
10.9772
 11
3.86287
 21
10.9554
  0
LINE
  8
0
 10
3.86287
 20
10.9554
 11
3.96352
 21
10.9266
  0
LINE
  8
0
 10
3.96352
 20
10.9266
 11
4.0619
 21
10.8908
  0
LINE
  8
0
 10
4.0619
 20
10.8908
 11
4.15755
 21
10.8482
  0
LINE
  8
0
 10
4.15755
 20
10.8482
 11
4.25
 21
10.799
  0
LINE
  8
0
 10
4.25
 20
10.799
 11
4.33878
 21
10.7435
  0
LINE
  8
0
 10
4.33878
 20
10.7435
 11
4.42348
 21
10.682
  0
LINE
  8
0
 10
4.42348
 20
10.682
 11
4.50369
 21
10.6147
  0
LINE
  8
0
 10
4.50369
 20
10.6147
 11
4.57899
 21
10.542
  0
LINE
  8
0
 10
4.57899
 20
10.542
 11
4.64906
 21
10.4642
  0
LINE
  8
0
 10
4.64906
 20
10.4642
 11
4.71352
 21
10.3817
  0
LINE
  8
0
 10
4.71352
 20
10.3817
 11
4.77206
 21
10.2949
  0
LINE
  8
0
 10
4.77206
 20
10.2949
 11
4.82442
 21
10.2042
  0
LINE
  8
0
 10
4.82442
 20
10.2042
 11
4.87032
 21
10.1101
  0
LINE
  8
0
 10
4.87032
 20
10.1101
 11
4.90953
 21
10.013
  0
LINE
  8
0
 10
4.90953
 20
10.013
 11
4.94188
 21
9.91345
  0
LINE
  8
0
 10
4.94188
 20
9.91345
 11
4.96721
 21
9.81186
  0
LINE
  8
0
 10
4.96721
 20
9.81186
 11
4.9854
 21
9.70876
  0
LINE
  8
0
 10
4.9854
 20
9.70876
 11
4.99634
 21
9.60463
  0
LINE
  8
0
 10
4.99634
 20
9.60463
 11
5
 21
9.5
  0
LINE
  8
0
 10
5
 20
9.5
 11
5
 21
0
  0
LINE
  8
0
 10
5
 20
0
 11
46
 21
0
  0
LINE
  8
0
 10
46
 20
0
 11
46
 21
12
  0
LINE
  8
0
 10
39.9302
 20
4.00121
 11
39.7909
 21
4.01096
  0
LINE
  8
0
 10
39.7909
 20
4.01096
 11
39.6527
 21
4.03038
  0
LINE
  8
0
 10
39.6527
 20
4.03038
 11
39.5161
 21
4.0594
  0
LINE
  8
0
 10
39.5161
 20
4.0594
 11
39.382
 21
4.09789
  0
LINE
  8
0
 10
39.382
 20
4.09789
 11
39.2508
 21
4.14563
  0
LINE
  8
0
 10
39.2508
 20
4.14563
 11
39.1232
 21
4.20241
  0
LINE
  8
0
 10
39.1232
 20
4.20241
 11
39
 21
4.26794
  0
LINE
  8
0
 10
39
 20
4.26794
 11
38.8816
 21
4.34192
  0
LINE
  8
0
 10
38.8816
 20
4.34192
 11
38.7687
 21
4.42397
  0
LINE
  8
0
 10
38.7687
 20
4.42397
 11
38.6617
 21
4.5137
  0
LINE
  8
0
 10
38.6617
 20
4.5137
 11
38.5613
 21
4.61067
  0
LINE
  8
0
 10
38.5613
 20
4.61067
 11
38.4679
 21
4.71442
  0
LINE
  8
0
 10
38.4679
 20
4.71442
 11
38.382
 21
4.82442
  0
LINE
  8
0
 10
38.382
 20
4.82442
 11
38.3039
 21
4.94016
  0
LINE
  8
0
 10
38.3039
 20
4.94016
 11
38.2341
 21
5.06105
  0
LINE
  8
0
 10
38.2341
 20
5.06105
 11
38.1729
 21
5.18652
  0
LINE
  8
0
 10
38.1729
 20
5.18652
 11
38.1206
 21
5.31595
  0
LINE
  8
0
 10
38.1206
 20
5.31595
 11
38.0775
 21
5.44872
  0
LINE
  8
0
 10
38.0775
 20
5.44872
 11
38.0437
 21
5.58417
  0
LINE
  8
0
 10
38.0437
 20
5.58417
 11
38.0195
 21
5.72165
  0
LINE
  8
0
 10
38.0195
 20
5.72165
 11
38.0049
 21
5.86047
  0
LINE
  8
0
 10
38.0049
 20
5.86047
 11
38
 21
6
  0
LINE
  8
0
 10
38
 20
6
 11
38.0049
 21
6.13951
  0
LINE
  8
0
 10
38.0049
 20
6.13951
 11
38.0195
 21
6.27834
  0
LINE
  8
0
 10
38.0195
 20
6.27834
 11
38.0437
 21
6.41582
  0
LINE
  8
0
 10
38.0437
 20
6.41582
 11
38.0775
 21
6.55127
  0
LINE
  8
0
 10
38.0775
 20
6.55127
 11
38.1206
 21
6.68404
  0
LINE
  8
0
 10
38.1206
 20
6.68404
 11
38.1729
 21
6.81346
  0
LINE
  8
0
 10
38.1729
 20
6.81346
 11
38.2341
 21
6.93893
  0
LINE
  8
0
 10
38.2341
 20
6.93893
 11
38.3039
 21
7.05983
  0
LINE
  8
0
 10
38.3039
 20
7.05983
 11
38.382
 21
7.17557
  0
LINE
  8
0
 10
38.382
 20
7.17557
 11
38.4679
 21
7.28557
  0
LINE
  8
0
 10
38.4679
 20
7.28557
 11
38.5613
 21
7.38931
  0
LINE
  8
0
 10
38.5613
 20
7.38931
 11
38.6617
 21
7.48628
  0
LINE
  8
0
 10
38.6617
 20
7.48628
 11
38.7687
 21
7.57602
  0
LINE
  8
0
 10
38.7687
 20
7.57602
 11
38.8816
 21
7.65807
  0
LINE
  8
0
 10
38.8816
 20
7.65807
 11
39
 21
7.73204
  0
LINE
  8
0
 10
39
 20
7.73204
 11
39.1232
 21
7.79758
  0
LINE
  8
0
 10
39.1232
 20
7.79758
 11
39.2508
 21
7.85435
  0
LINE
  8
0
 10
39.2508
 20
7.85435
 11
39.382
 21
7.9021
  0
LINE
  8
0
 10
39.382
 20
7.9021
 11
39.5161
 21
7.94058
  0
LINE
  8
0
 10
39.5161
 20
7.94058
 11
39.6527
 21
7.9696
  0
LINE
  8
0
 10
39.6527
 20
7.9696
 11
39.7909
 21
7.98903
  0
LINE
  8
0
 10
39.7909
 20
7.98903
 11
39.9302
 21
7.99878
  0
LINE
  8
0
 10
39.9302
 20
7.99878
 11
40.0698
 21
7.99878
  0
LINE
  8
0
 10
40.0698
 20
7.99878
 11
40.209
 21
7.98903
  0
LINE
  8
0
 10
40.209
 20
7.98903
 11
40.3473
 21
7.9696
  0
LINE
  8
0
 10
40.3473
 20
7.9696
 11
40.4838
 21
7.94058
  0
LINE
  8
0
 10
40.4838
 20
7.94058
 11
40.618
 21
7.9021
  0
LINE
  8
0
 10
40.618
 20
7.9021
 11
40.7492
 21
7.85435
  0
LINE
  8
0
 10
40.7492
 20
7.85435
 11
40.8767
 21
7.79758
  0
LINE
  8
0
 10
40.8767
 20
7.79758
 11
41
 21
7.73204
  0
LINE
  8
0
 10
41
 20
7.73204
 11
41.1184
 21
7.65807
  0
LINE
  8
0
 10
41.1184
 20
7.65807
 11
41.2313
 21
7.57602
  0
LINE
  8
0
 10
41.2313
 20
7.57602
 11
41.3383
 21
7.48628
  0
LINE
  8
0
 10
41.3383
 20
7.48628
 11
41.4387
 21
7.38931
  0
LINE
  8
0
 10
41.4387
 20
7.38931
 11
41.5321
 21
7.28557
  0
LINE
  8
0
 10
41.5321
 20
7.28557
 11
41.618
 21
7.17557
  0
LINE
  8
0
 10
41.618
 20
7.17557
 11
41.6961
 21
7.05983
  0
LINE
  8
0
 10
41.6961
 20
7.05983
 11
41.7659
 21
6.93893
  0
LINE
  8
0
 10
41.7659
 20
6.93893
 11
41.8271
 21
6.81346
  0
LINE
  8
0
 10
41.8271
 20
6.81346
 11
41.8794
 21
6.68404
  0
LINE
  8
0
 10
41.8794
 20
6.68404
 11
41.9225
 21
6.55127
  0
LINE
  8
0
 10
41.9225
 20
6.55127
 11
41.9563
 21
6.41582
  0
LINE
  8
0
 10
41.9563
 20
6.41582
 11
41.9805
 21
6.27834
  0
LINE
  8
0
 10
41.9805
 20
6.27834
 11
41.9951
 21
6.13951
  0
LINE
  8
0
 10
41.9951
 20
6.13951
 11
42
 21
6
  0
LINE
  8
0
 10
42
 20
6
 11
41.9951
 21
5.86047
  0
LINE
  8
0
 10
41.9951
 20
5.86047
 11
41.9805
 21
5.72165
  0
LINE
  8
0
 10
41.9805
 20
5.72165
 11
41.9563
 21
5.58417
  0
LINE
  8
0
 10
41.9563
 20
5.58417
 11
41.9225
 21
5.44872
  0
LINE
  8
0
 10
41.9225
 20
5.44872
 11
41.8794
 21
5.31595
  0
LINE
  8
0
 10
41.8794
 20
5.31595
 11
41.8271
 21
5.18652
  0
LINE
  8
0
 10
41.8271
 20
5.18652
 11
41.7659
 21
5.06105
  0
LINE
  8
0
 10
41.7659
 20
5.06105
 11
41.6961
 21
4.94016
  0
LINE
  8
0
 10
41.6961
 20
4.94016
 11
41.618
 21
4.82442
  0
LINE
  8
0
 10
41.618
 20
4.82442
 11
41.5321
 21
4.71442
  0
LINE
  8
0
 10
41.5321
 20
4.71442
 11
41.4387
 21
4.61067
  0
LINE
  8
0
 10
41.4387
 20
4.61067
 11
41.3383
 21
4.5137
  0
LINE
  8
0
 10
41.3383
 20
4.5137
 11
41.2313
 21
4.42397
  0
LINE
  8
0
 10
41.2313
 20
4.42397
 11
41.1184
 21
4.34192
  0
LINE
  8
0
 10
41.1184
 20
4.34192
 11
41
 21
4.26794
  0
LINE
  8
0
 10
41
 20
4.26794
 11
40.8767
 21
4.20241
  0
LINE
  8
0
 10
40.8767
 20
4.20241
 11
40.7492
 21
4.14563
  0
LINE
  8
0
 10
40.7492
 20
4.14563
 11
40.618
 21
4.09789
  0
LINE
  8
0
 10
40.618
 20
4.09789
 11
40.4838
 21
4.0594
  0
LINE
  8
0
 10
40.4838
 20
4.0594
 11
40.3473
 21
4.03038
  0
LINE
  8
0
 10
40.3473
 20
4.03038
 11
40.209
 21
4.01096
  0
LINE
  8
0
 10
40.209
 20
4.01096
 11
40.0698
 21
4.00121
  0
LINE
  8
0
 10
40.0698
 20
4.00121
 11
39.9302
 21
4.00121
  0
LINE
  8
0
 10
19.9302
 20
4.00121
 11
19.7909
 21
4.01096
  0
LINE
  8
0
 10
19.7909
 20
4.01096
 11
19.6527
 21
4.03038
  0
LINE
  8
0
 10
19.6527
 20
4.03038
 11
19.5161
 21
4.0594
  0
LINE
  8
0
 10
19.5161
 20
4.0594
 11
19.382
 21
4.09789
  0
LINE
  8
0
 10
19.382
 20
4.09789
 11
19.2508
 21
4.14563
  0
LINE
  8
0
 10
19.2508
 20
4.14563
 11
19.1232
 21
4.20241
  0
LINE
  8
0
 10
19.1232
 20
4.20241
 11
19
 21
4.26794
  0
LINE
  8
0
 10
19
 20
4.26794
 11
18.8816
 21
4.34192
  0
LINE
  8
0
 10
18.8816
 20
4.34192
 11
18.7687
 21
4.42397
  0
LINE
  8
0
 10
18.7687
 20
4.42397
 11
18.6617
 21
4.5137
  0
LINE
  8
0
 10
18.6617
 20
4.5137
 11
18.5613
 21
4.61067
  0
LINE
  8
0
 10
18.5613
 20
4.61067
 11
18.4679
 21
4.71442
  0
LINE
  8
0
 10
18.4679
 20
4.71442
 11
18.382
 21
4.82442
  0
LINE
  8
0
 10
18.382
 20
4.82442
 11
18.3039
 21
4.94016
  0
LINE
  8
0
 10
18.3039
 20
4.94016
 11
18.2341
 21
5.06105
  0
LINE
  8
0
 10
18.2341
 20
5.06105
 11
18.1729
 21
5.18652
  0
LINE
  8
0
 10
18.1729
 20
5.18652
 11
18.1206
 21
5.31595
  0
LINE
  8
0
 10
18.1206
 20
5.31595
 11
18.0775
 21
5.44872
  0
LINE
  8
0
 10
18.0775
 20
5.44872
 11
18.0437
 21
5.58417
  0
LINE
  8
0
 10
18.0437
 20
5.58417
 11
18.0195
 21
5.72165
  0
LINE
  8
0
 10
18.0195
 20
5.72165
 11
18.0049
 21
5.86047
  0
LINE
  8
0
 10
18.0049
 20
5.86047
 11
18
 21
6
  0
LINE
  8
0
 10
18
 20
6
 11
18.0049
 21
6.13951
  0
LINE
  8
0
 10
18.0049
 20
6.13951
 11
18.0195
 21
6.27834
  0
LINE
  8
0
 10
18.0195
 20
6.27834
 11
18.0437
 21
6.41582
  0
LINE
  8
0
 10
18.0437
 20
6.41582
 11
18.0775
 21
6.55127
  0
LINE
  8
0
 10
18.0775
 20
6.55127
 11
18.1206
 21
6.68404
  0
LINE
  8
0
 10
18.1206
 20
6.68404
 11
18.1729
 21
6.81346
  0
LINE
  8
0
 10
18.1729
 20
6.81346
 11
18.2341
 21
6.93893
  0
LINE
  8
0
 10
18.2341
 20
6.93893
 11
18.3039
 21
7.05983
  0
LINE
  8
0
 10
18.3039
 20
7.05983
 11
18.382
 21
7.17557
  0
LINE
  8
0
 10
18.382
 20
7.17557
 11
18.4679
 21
7.28557
  0
LINE
  8
0
 10
18.4679
 20
7.28557
 11
18.5613
 21
7.38931
  0
LINE
  8
0
 10
18.5613
 20
7.38931
 11
18.6617
 21
7.48628
  0
LINE
  8
0
 10
18.6617
 20
7.48628
 11
18.7687
 21
7.57602
  0
LINE
  8
0
 10
18.7687
 20
7.57602
 11
18.8816
 21
7.65807
  0
LINE
  8
0
 10
18.8816
 20
7.65807
 11
19
 21
7.73204
  0
LINE
  8
0
 10
19
 20
7.73204
 11
19.1232
 21
7.79758
  0
LINE
  8
0
 10
19.1232
 20
7.79758
 11
19.2508
 21
7.85435
  0
LINE
  8
0
 10
19.2508
 20
7.85435
 11
19.382
 21
7.9021
  0
LINE
  8
0
 10
19.382
 20
7.9021
 11
19.5161
 21
7.94058
  0
LINE
  8
0
 10
19.5161
 20
7.94058
 11
19.6527
 21
7.9696
  0
LINE
  8
0
 10
19.6527
 20
7.9696
 11
19.7909
 21
7.98903
  0
LINE
  8
0
 10
19.7909
 20
7.98903
 11
19.9302
 21
7.99878
  0
LINE
  8
0
 10
19.9302
 20
7.99878
 11
20.0698
 21
7.99878
  0
LINE
  8
0
 10
20.0698
 20
7.99878
 11
20.209
 21
7.98903
  0
LINE
  8
0
 10
20.209
 20
7.98903
 11
20.3473
 21
7.9696
  0
LINE
  8
0
 10
20.3473
 20
7.9696
 11
20.4838
 21
7.94058
  0
LINE
  8
0
 10
20.4838
 20
7.94058
 11
20.618
 21
7.9021
  0
LINE
  8
0
 10
20.618
 20
7.9021
 11
20.7492
 21
7.85435
  0
LINE
  8
0
 10
20.7492
 20
7.85435
 11
20.8767
 21
7.79758
  0
LINE
  8
0
 10
20.8767
 20
7.79758
 11
21
 21
7.73204
  0
LINE
  8
0
 10
21
 20
7.73204
 11
21.1184
 21
7.65807
  0
LINE
  8
0
 10
21.1184
 20
7.65807
 11
21.2313
 21
7.57602
  0
LINE
  8
0
 10
21.2313
 20
7.57602
 11
21.3383
 21
7.48628
  0
LINE
  8
0
 10
21.3383
 20
7.48628
 11
21.4387
 21
7.38931
  0
LINE
  8
0
 10
21.4387
 20
7.38931
 11
21.5321
 21
7.28557
  0
LINE
  8
0
 10
21.5321
 20
7.28557
 11
21.618
 21
7.17557
  0
LINE
  8
0
 10
21.618
 20
7.17557
 11
21.6961
 21
7.05983
  0
LINE
  8
0
 10
21.6961
 20
7.05983
 11
21.7659
 21
6.93893
  0
LINE
  8
0
 10
21.7659
 20
6.93893
 11
21.8271
 21
6.81346
  0
LINE
  8
0
 10
21.8271
 20
6.81346
 11
21.8794
 21
6.68404
  0
LINE
  8
0
 10
21.8794
 20
6.68404
 11
21.9225
 21
6.55127
  0
LINE
  8
0
 10
21.9225
 20
6.55127
 11
21.9563
 21
6.41582
  0
LINE
  8
0
 10
21.9563
 20
6.41582
 11
21.9805
 21
6.27834
  0
LINE
  8
0
 10
21.9805
 20
6.27834
 11
21.9951
 21
6.13951
  0
LINE
  8
0
 10
21.9951
 20
6.13951
 11
22
 21
6
  0
LINE
  8
0
 10
22
 20
6
 11
21.9951
 21
5.86047
  0
LINE
  8
0
 10
21.9951
 20
5.86047
 11
21.9805
 21
5.72165
  0
LINE
  8
0
 10
21.9805
 20
5.72165
 11
21.9563
 21
5.58417
  0
LINE
  8
0
 10
21.9563
 20
5.58417
 11
21.9225
 21
5.44872
  0
LINE
  8
0
 10
21.9225
 20
5.44872
 11
21.8794
 21
5.31595
  0
LINE
  8
0
 10
21.8794
 20
5.31595
 11
21.8271
 21
5.18652
  0
LINE
  8
0
 10
21.8271
 20
5.18652
 11
21.7659
 21
5.06105
  0
LINE
  8
0
 10
21.7659
 20
5.06105
 11
21.6961
 21
4.94016
  0
LINE
  8
0
 10
21.6961
 20
4.94016
 11
21.618
 21
4.82442
  0
LINE
  8
0
 10
21.618
 20
4.82442
 11
21.5321
 21
4.71442
  0
LINE
  8
0
 10
21.5321
 20
4.71442
 11
21.4387
 21
4.61067
  0
LINE
  8
0
 10
21.4387
 20
4.61067
 11
21.3383
 21
4.5137
  0
LINE
  8
0
 10
21.3383
 20
4.5137
 11
21.2313
 21
4.42397
  0
LINE
  8
0
 10
21.2313
 20
4.42397
 11
21.1184
 21
4.34192
  0
LINE
  8
0
 10
21.1184
 20
4.34192
 11
21
 21
4.26794
  0
LINE
  8
0
 10
21
 20
4.26794
 11
20.8767
 21
4.20241
  0
LINE
  8
0
 10
20.8767
 20
4.20241
 11
20.7492
 21
4.14563
  0
LINE
  8
0
 10
20.7492
 20
4.14563
 11
20.618
 21
4.09789
  0
LINE
  8
0
 10
20.618
 20
4.09789
 11
20.4838
 21
4.0594
  0
LINE
  8
0
 10
20.4838
 20
4.0594
 11
20.3473
 21
4.03038
  0
LINE
  8
0
 10
20.3473
 20
4.03038
 11
20.209
 21
4.01096
  0
LINE
  8
0
 10
20.209
 20
4.01096
 11
20.0698
 21
4.00121
  0
LINE
  8
0
 10
20.0698
 20
4.00121
 11
19.9302
 21
4.00121
  0
ENDSEC
  0
SECTION
  2
OBJECTS
  0
DICTIONARY
  0
ENDSEC
  0
EOF
